<?xml version="1.0" encoding="utf-8"?>
<!-- Generator: Adobe Illustrator 22.0.0, SVG Export Plug-In . SVG Version: 6.00 Build 0)  -->
<svg version="1.1" xmlns="http://www.w3.org/2000/svg" xmlns:xlink="http://www.w3.org/1999/xlink" x="0px" y="0px"
	 viewBox="0 0 674 226.4" style="enable-background:new 0 0 674 226.4;" xml:space="preserve">
<style type="text/css">
	.st0{fill:#FFFFFF;}
	.st1{fill:#90FFC4;stroke:#343E5A;stroke-width:2.33;stroke-miterlimit:10;}
</style>
<g id="Layer_1">
	<title>dra-05</title>
	<path class="st0" d="M253.4,186.8c-0.5,0-0.9-0.4-1.1-0.7l0,0l-5.5-20.6h-8c-0.4,0-0.5,0.2-0.5,0.5l-3.8,20.1
		c0,0.4-0.4,0.7-0.9,0.7l-9.9-0.2c-0.4,0-0.7-0.2-0.7-0.5v-0.2l10-53.6c0-0.5,0.4-0.7,0.9-0.7l21,0.2c9.9,0.2,15.5,5.7,15.5,13.9
		c0.2,8.4-5.1,15.9-13,18.6l6.2,22.1c0.2,0.4,0,0.7-0.2,0.9c-0.2,0-0.2,0.2-0.4,0L253.4,186.8z M259.1,146.8c0-3.5-2.4-5.5-6.2-5.5
		l-9.3-0.2c-0.4,0-0.5,0.2-0.5,0.5l-2.6,13.3c0,0.4,0,0.5,0.4,0.5l9.3,0.2c4.7,0.2,8.6-3.5,8.9-8.2
		C259.1,147.4,259.1,147,259.1,146.8L259.1,146.8z"/>
	<path class="st0" d="M275.5,166.4l6.4-33.9c0-0.4,0.4-0.7,0.9-0.7l9.9,0.2c0.4,0,0.7,0.2,0.7,0.5v0.2l-6.6,34.7
		c-1.3,6.9,1.8,10.8,7.3,10.8s8.9-2.4,10.6-10.6l6.6-34.7c0-0.5,0.4-0.7,0.9-0.7l9.9,0.2c0.4,0,0.7,0.2,0.7,0.5v0.2l-6.6,34.7
		c-2.9,15.3-10.8,20.6-23,20.4C280.3,188.1,273,180.2,275.5,166.4z"/>
	<path class="st0" d="M332.6,133.2c0-0.5,0.4-0.7,0.9-0.7l9.3,0.2c0.5,0,1.1,0.2,1.3,0.9l12.2,35.8h0.4l6.7-35.6
		c0-0.5,0.4-0.7,0.9-0.7h8.8c0.4,0,0.7,0.2,0.7,0.5v0.2l-10,53.6c0,0.5-0.4,0.7-0.9,0.7l-9.3-0.2c-0.5,0-0.9-0.4-1.1-0.9l-12.4-35.8
		h-0.4l-6.7,35.6c0,0.4-0.4,0.7-0.9,0.7h-8.8c-0.4,0-0.7-0.2-0.7-0.5v-0.2L332.6,133.2z"/>
	<path class="st0" d="M384.1,133.7c0-0.5,0.4-0.7,0.9-0.7l9.3,0.2c0.5,0,1.1,0.2,1.3,0.9l12.2,35.8h0.4l6.7-35.6
		c0-0.5,0.4-0.7,0.9-0.7h8.8c0.4,0,0.7,0.2,0.7,0.5v0.2l-10,53.6c0,0.5-0.4,0.7-0.9,0.7l-9.3-0.2c-0.5,0-0.9-0.4-1.1-0.9l-12.4-35.8
		h-0.4l-6.7,35.6c0,0.4-0.4,0.7-0.9,0.7h-8.8c-0.4,0-0.7-0.2-0.7-0.5v-0.2L384.1,133.7z"/>
	<path class="st0" d="M435.7,134.3c0-0.5,0.4-0.7,0.9-0.7l34.1,0.4c0.4,0,0.7,0.2,0.7,0.5v0.2l-1.6,8.2c0,0.4-0.4,0.7-0.9,0.7
		l-23-0.2c-0.4,0-0.5,0.2-0.5,0.5l-2.2,11.7c0,0.4,0,0.5,0.4,0.5l19.2,0.2c0.4,0,0.7,0.2,0.7,0.5v0.2l-1.6,8.2
		c0,0.5-0.5,0.7-0.9,0.7l-19.2-0.2c-0.4,0-0.5,0.2-0.5,0.5l-2.2,12c0,0.4,0,0.5,0.4,0.5l23,0.2c0.4,0,0.7,0.2,0.7,0.5v0.2l-1.6,8.2
		c0,0.5-0.4,0.7-0.9,0.7l-33.9-0.4c-0.4,0-0.7-0.2-0.7-0.5v-0.2L435.7,134.3z"/>
	<path class="st0" d="M499.9,189.5c-0.5,0-0.9-0.4-1.1-0.7l0,0l-5.5-20.6h-8c-0.4,0-0.5,0.2-0.5,0.5l-3.8,20.1
		c0,0.4-0.4,0.7-0.9,0.7l-9.9-0.2c-0.4,0-0.7-0.2-0.7-0.5v-0.2l10-53.6c0-0.5,0.4-0.7,0.9-0.7l21,0.2c9.9,0.2,15.5,5.7,15.5,13.9
		c0.2,8.4-5.1,15.9-13,18.6l6.2,22.1c0.2,0.4,0,0.7-0.2,0.9c-0.2,0-0.2,0.2-0.4,0L499.9,189.5z M505.5,149.6c0-3.5-2.4-5.5-6.2-5.5
		l-9.3-0.2c-0.4,0-0.5,0.2-0.5,0.5l-2.4,13.3c0,0.4,0,0.5,0.4,0.5l9.3,0.2c4.7,0.2,8.6-3.5,8.9-8.2
		C505.5,149.9,505.5,149.8,505.5,149.6L505.5,149.6z"/>
	<path class="st0" d="M517,183.1c-0.4-0.4-0.2-0.9,0-1.3l7.1-6.6c0.4-0.4,0.9-0.4,1.1,0c3.5,3.5,8,5.5,13,5.7
		c6.2,0,10.2-3.6,10.2-8.2c0-2.7-1.6-4.4-7.1-5.3l-2.7-0.4c-9.3-1.5-14.4-6.2-14.2-14c0.2-11.7,9.3-19.2,21.9-19.2
		c6.2-0.2,12.4,2,17.1,6c0.4,0.4,0.4,0.7,0,1.3l-5.8,6.6c-0.4,0.4-0.9,0.5-1.1,0.2c-3.1-2.6-7.1-4-11.1-4.2c-5.3,0-8.9,3.3-8.9,7.5
		c0,2.7,1.6,4.6,7.1,5.5l2.7,0.4c9.3,1.5,14.4,6,14.4,13.5c-0.2,13-10.2,20.4-24.1,20.4C528.5,190.8,520.5,187.2,517,183.1z"/>
	<path class="st0" d="M98.8,94.4c-1.1-1.7-3.4-2.2-5.1-1.2l0,0l-16,10c-1.7,1.1-2.3,3.4-1.2,5.1c1.1,1.7,3.4,2.3,5.1,1.2l0,0l16-10
		C99.4,98.4,99.9,96.2,98.8,94.4L98.8,94.4z"/>
	<path class="st0" d="M73.8,110.1c-1.1-1.7-3.4-2.3-5.1-1.2l0,0l0,0c-1.7,1.1-2.3,3.4-1.2,5.1c1.1,1.7,3.4,2.3,5.1,1.2h0.1
		C74.4,114.1,74.9,111.8,73.8,110.1C73.9,110.1,73.9,110.1,73.8,110.1z"/>
	<path class="st0" d="M217,21.3c-1-1.5-3.1-2.1-4.7-1.2L103,75c-1.8,0.9-2.6,3.1-1.7,5c0.3,0.7,0.9,1.2,1.6,1.6L124.4,93l-49.1,30.8
		c-1.7,1.1-2.3,3.4-1.2,5.1c0.3,0.6,0.8,1,1.4,1.3l23.9,12.7l-69.6,59.4c-1.5,1.4-1.6,3.7-0.2,5.2c1.1,1.2,2.9,1.5,4.4,0.8
		L146.3,146c1.8-1,2.5-3.2,1.5-5c-0.3-0.6-0.9-1.1-1.5-1.5l-21.9-11.6l51-32.8c1.7-1.1,2.2-3.4,1.1-5.1c-0.3-0.5-0.8-1-1.4-1.3
		l-18.9-9.9l60.2-52.6C217.8,24.9,218.1,22.8,217,21.3z M147.3,76.8c-1.5,1.4-1.6,3.7-0.3,5.2c0.3,0.3,0.6,0.6,1,0.8l18,9.4L115,125
		c-1.7,1.1-2.2,3.4-1.1,5.1c0.3,0.5,0.8,1,1.4,1.3l21.4,11.4l-74,41.1l45.6-38.9c1.6-1.3,1.7-3.7,0.4-5.2c-0.3-0.3-0.7-0.6-1.1-0.9
		l-23.1-12.3l49.1-30.9c1.7-1.1,2.3-3.4,1.2-5.1c-0.3-0.6-0.8-1-1.4-1.3l-20.8-11l77-38.7L147.3,76.8z"/>
	<path class="st1" d="M113.4,128.3c0.1,1.3,0.8,2.5,2,3.1l21.4,11.4l-74,41.1l45.6-38.9c1.6-1.3,1.7-3.7,0.4-5.2
		c-0.3-0.3-0.7-0.6-1.1-0.9l-23-12.3l49.1-30.9c1.7-1.1,2.3-3.4,1.2-5.1c-0.3-0.6-0.8-1-1.4-1.3l-20.9-11l77-38.7l-42.4,37.1
		c-1.5,1.4-1.6,3.7-0.3,5.2c0.3,0.3,0.6,0.6,1,0.8l18,9.4l-51,32.8C113.9,125.7,113.3,127,113.4,128.3z"/>
	<path class="st0" d="M168.6,147.9c-1-1.8-3.2-2.4-5-1.4h-0.1c-1.8,1-2.4,3.2-1.4,5s3.2,2.4,5,1.4h0.1
		C169,152,169.6,149.7,168.6,147.9L168.6,147.9z"/>
	<path class="st0" d="M159.3,153.1c-1-1.8-3.2-2.4-5-1.4l-16.5,9.1c-1.8,1-2.4,3.2-1.4,5c1,1.8,3.2,2.4,5,1.4l0,0l16.5-9.1
		C159.6,157.1,160.3,154.9,159.3,153.1z"/>
	<path class="st0" d="M263.8,112.3c-3.9,3.9-9.4,5.5-15.2,5.5h-20.9V61.4h20.9c5.9,0,11.3,1.7,15.2,5.5c6.6,6.6,5.9,13.8,5.9,22.6
		S270.4,105.7,263.8,112.3z M254.3,77c-1.3-1.9-3.2-3.2-6.6-3.2h-6.1v31.7h6.1c3.5,0,5.4-1.3,6.6-3.2c1.1-1.6,1.5-3.1,1.5-12.7
		S255.4,78.6,254.3,77L254.3,77z"/>
	<path class="st0" d="M305.2,117.9l-2.6-8.4h-17.3l-2.8,8.4H268l20.5-56.4h10.7l20.5,56.4H305.2z M294.2,82.9l-5.1,15h9.8
		L294.2,82.9z"/>
	<path class="st0" d="M349.2,117.9l-10-21h-4.7v21h-13.8V61.5H343c12.5,0,19.2,8.9,19.2,18.1c0,6.3-3.5,12-9.2,14.7l12.2,23.5
		L349.2,117.9z M342.4,73.9h-7.8v11.4h7.8c3.2,0.1,5.8-2.3,5.9-5.5s-2.3-5.8-5.5-5.9C342.7,73.9,342.5,73.9,342.4,73.9z"/>
	<path class="st0" d="M392,73.8v44h-13.9v-44h-13.9V61.4h41.6v12.4H392z"/>
	<path class="st0" d="M447.9,117.9v-27l-8,13.9H431l-8-13.9v27h-13.9V61.5h13.6l12.7,24.9l12.7-24.9h13.6v56.4H447.9z"/>
	<path class="st0" d="M503.8,112c-4.1,4.1-8.9,6.3-15.8,6.3s-11.6-2.2-15.8-6.3c-5.9-5.9-5.7-13.9-5.7-22.3s-0.2-16.4,5.7-22.3
		c4.1-4.1,8.9-6.3,15.8-6.3s11.6,2.2,15.8,6.3c5.9,5.9,5.7,13.9,5.7,22.3S509.8,106.1,503.8,112z M493.6,75.8
		c-2.8-3.1-7.5-3.3-10.6-0.5c-0.2,0.2-0.4,0.3-0.5,0.5c-1.3,1.7-2.1,3.6-2.1,13.9s0.8,12.1,2.1,13.8c2.6,3.1,7.3,3.4,10.3,0.8
		c0.3-0.2,0.5-0.5,0.8-0.8c1.3-1.7,2.1-3.5,2.1-13.8S494.9,77.5,493.6,75.8z"/>
	<path class="st0" d="M534.7,118.3c-11.7,0-21.3-7.9-21.3-20.3V61.4h13.9v36.3c0,5.2,2.9,8.2,7.4,8.2s7.6-3,7.6-8.2V61.5h13.9v36.6
		C556.2,110.4,546.4,118.3,534.7,118.3z"/>
	<path class="st0" d="M586.3,73.8v44h-13.9v-44h-13.9V61.4h41.6v12.4H586.3z"/>
	<path class="st0" d="M632.1,117.9V95.6h-14.7v22.3h-13.9V61.5h13.9v21.7h14.7V61.5H646v56.4H632.1z"/>
</g>
<g id="Layer_2">
</g>
</svg>
