<?xml version="1.0" encoding="utf-8"?>
<!-- Generator: Adobe Illustrator 22.0.0, SVG Export Plug-In . SVG Version: 6.00 Build 0)  -->
<svg version="1.1" id="Capa_1" xmlns="http://www.w3.org/2000/svg" xmlns:xlink="http://www.w3.org/1999/xlink" x="0px" y="0px"
	 viewBox="0 0 512 512" style="enable-background:new 0 0 512 512;" xml:space="preserve">
<style type="text/css">
	.st0{fill:#70F5C6;}
	.st1{fill:#343C5B;}
</style>
<polygon class="st0" points="117.4,50 163,87.1 203,103 227,55.7 193.8,10 136,20 "/>
<polygon class="st0" points="63,395 111,369 132.1,407 163,369 181,388 132.1,508 10,512 "/>
<polygon class="st0" points="214.8,305 125,500 501,500 415,323.3 351.5,278 321,345 274,278 "/>
<g>
	<g>
		<path class="st1" d="M234.8,63c0-34.7-28.3-63-63-63c-27.8,0-51.7,17.9-59.9,43.6c-24,0.3-46.1,14.1-57,35.3
			C24.5,79.7,0,104.8,0,135.6c0,5.5,4.5,10,10,10h60.5c5.5,0,10-4.5,10-10s-4.5-10-10-10H21.4c4.3-15.4,18.4-26.8,35.1-26.8
			c1.2,0,2.5,0.1,3.8,0.2c4.5,0.5,8.7-2.2,10.4-6.4c6.6-17.4,23.5-29,42-29s35.4,11.7,42,29c1.6,4.2,5.9,6.8,10.4,6.4
			c1.3-0.1,2.6-0.2,3.8-0.2c16.7,0,30.8,11.3,35.1,26.8H156c-5.5,0-10,4.5-10,10s4.5,10,10,10h59.2c5.5,0,10-4.5,10-10
			c0-10.6-2.9-20.5-7.9-29C228.5,94.9,234.8,79.5,234.8,63z M204.1,91.4c-9.3-7.5-21-12.2-33.8-12.5c-8-15.5-22-27-38.3-32.2
			c6.5-15.9,22-26.6,39.8-26.6c23.7,0,43,19.3,43,43C214.8,73.6,211,83.6,204.1,91.4z"/>
	</g>
</g>
<g>
	<g>
		<path class="st1" d="M115,125.6L115,125.6c-5.5,0-10,4.5-10,10s4.5,10,10,10c5.5,0,10-4.5,10-10S120.5,125.6,115,125.6z"/>
	</g>
</g>
<g>
	<g>
		<path class="st1" d="M511.1,497.8L386.6,227.5c-2.3-5-8.2-7.2-13.3-4.9c-5,2.3-7.2,8.2-4.9,13.3l31.7,68.8L360.8,265
			c-2.3-2.3-5.6-3.4-8.8-2.8c-3.2,0.5-6,2.6-7.4,5.6l-29.3,61.4l-30.7-62.3c-1.3-2.6-3.5-4.4-6.3-5.2c-2.7-0.8-5.7-0.3-8.1,1.2
			l-28.4,18.2L315.5,121l18.7,40.6c2.3,5,8.2,7.2,13.3,4.9c5-2.3,7.2-8.2,4.9-13.3l-27.8-60.3c-1.6-3.5-5.2-5.8-9.1-5.8
			s-7.5,2.3-9.1,5.8L204.3,314.6l-44-82.4c-1.7-3.3-5.1-5.3-8.8-5.3s-7.1,2-8.8,5.3L55.3,396c-0.1,0.1-0.1,0.2-0.2,0.3l-53.9,101
			c-1.7,3.1-1.6,6.8,0.2,9.9c1.8,3,5.1,4.9,8.6,4.9h492c3.4,0,6.6-1.7,8.4-4.6C512.3,504.5,512.5,500.9,511.1,497.8z M151.5,258.2
			l42.3,79.2l-14.7,32l-7.5-8.8c-2-2.3-4.9-3.6-7.9-3.5c-3,0.1-5.9,1.6-7.7,4l-20.4,27.3l-14.4-24.9c-1.4-2.4-3.7-4.1-6.4-4.7
			c-2.7-0.6-5.5-0.1-7.8,1.4l-15.3,10.2L151.5,258.2z M26.7,492l45-84.2l37.5-25.1l16.7,28.8c1.7,2.9,4.7,4.8,8.1,5
			c0.2,0,0.4,0,0.6,0c3.1,0,6.1-1.5,8-4l22-29.4l5.4,6.3L122.6,492H26.7z M144.6,492l81.7-177.4l45.3-29l34.9,70.8
			c1.7,3.4,5.2,5.6,9,5.6c0,0,0,0,0.1,0c3.8,0,7.3-2.2,9-5.7l32-67.2l68,68.6L486.4,492H144.6z"/>
	</g>
</g>
<g>
	<g>
		<path class="st1" d="M368.6,189.9c-1.9-1.9-4.4-2.9-7.1-2.9c-2.6,0-5.2,1.1-7.1,2.9c-1.9,1.9-2.9,4.4-2.9,7.1s1.1,5.2,2.9,7.1
			c1.9,1.9,4.4,2.9,7.1,2.9c2.6,0,5.2-1.1,7.1-2.9c1.9-1.9,2.9-4.4,2.9-7.1S370.5,191.8,368.6,189.9z"/>
	</g>
</g>
</svg>
